<svg xmlns="http://www.w3.org/2000/svg" width="42" height="42" viewBox="0 0 42 42">
  <path id="behance-square" d="M17.484,56.469c0,1.809-1.312,2.381-2.925,2.381H10.331V53.891h4.313c1.744.009,2.841.731,2.841,2.578Zm-.722-7.716c0-1.659-1.284-2.053-2.709-2.053H10.341v4.2h4c1.416,0,2.419-.619,2.419-2.147Zm12.4,2.175a2.8,2.8,0,0,0-2.972,2.784h5.831C31.866,51.978,30.966,50.928,29.166,50.928ZM42,36.5v33A4.5,4.5,0,0,1,37.5,74H4.5A4.5,4.5,0,0,1,0,69.5v-33A4.5,4.5,0,0,1,4.5,32h33A4.5,4.5,0,0,1,42,36.5ZM25.472,46.344h7.294V44.572H25.472ZM21.441,56.684a4.661,4.661,0,0,0-3.281-4.837c1.612-.769,2.456-1.659,2.456-3.469,0-3.581-2.672-4.453-5.756-4.453H6.375v18H15.1C18.375,61.906,21.441,60.341,21.441,56.684ZM35.625,55.3c0-3.853-2.259-7.069-6.338-7.069a6.543,6.543,0,0,0-6.666,6.9c0,4.059,2.559,6.844,6.666,6.844a5.812,5.812,0,0,0,6.1-4.388H32.231a2.965,2.965,0,0,1-2.831,1.7c-2.1,0-3.2-1.228-3.2-3.309H35.6c.009-.216.028-.45.028-.675Z" transform="translate(0 -32)" fill="#fff"/>
</svg>
