<svg xmlns="http://www.w3.org/2000/svg" xmlns:xlink="http://www.w3.org/1999/xlink" width="166" height="173" viewBox="0 0 166 173">
  <defs>
    <linearGradient id="linear-gradient" x1="0.5" x2="0.5" y2="1" gradientUnits="objectBoundingBox">
      <stop offset="0" stop-color="#f6bf9f"/>
      <stop offset="1" stop-color="#dc8cdb"/>
    </linearGradient>
  </defs>
  <g id="Grupo_51" data-name="Grupo 51" transform="translate(-7756 -2140)">
    <rect id="Retângulo_35" data-name="Retângulo 35" width="166" height="173" rx="38" transform="translate(7756 2140)" fill="url(#linear-gradient)"/>
    <path id="bootstrap" d="M72.479,67.081c0-4.577-3.129-7.1-8.624-7.1H53.748V74.722h8.523C68.849,74.7,72.479,71.968,72.479,67.081Zm36.8-2.651c-1.905-6.4-2.186-14.248-1.965-20.315C107.535,37.8,102.762,32,96.345,32H30.4c-6.438,0-11.191,5.819-10.97,12.115.2,6.068-.06,13.916-1.965,20.315-1.925,6.42-5.154,10.479-10.469,11v5.9c5.294.518,8.543,4.577,10.469,11,1.905,6.4,2.186,14.248,1.965,20.315-.221,6.316,4.552,12.115,10.97,12.115h65.92c6.438,0,11.191-5.819,10.97-12.115-.2-6.068.06-13.916,1.965-20.315,1.925-6.42,5.154-10.479,10.449-11v-5.9C114.434,74.908,111.185,70.849,109.28,64.43ZM65.8,103.051H46.167V53.7H65.7c8.684,0,14.379,4.846,14.379,12.3a10.9,10.9,0,0,1-8.724,10.727V77c6.658.746,11.13,5.509,11.13,12.073C82.487,97.791,76.209,103.051,65.8,103.051ZM63.8,80.541H53.748V96.777H64.237c6.859,0,10.489-2.837,10.489-8.18C74.725,83.275,71,80.541,63.8,80.541Z" transform="translate(7775.646 2148.123)" fill="#fff"/>
  </g>
</svg>
