<svg xmlns="http://www.w3.org/2000/svg" xmlns:xlink="http://www.w3.org/1999/xlink" width="166" height="173" viewBox="0 0 166 173">
  <defs>
    <linearGradient id="linear-gradient" x1="0.5" x2="0.5" y2="1" gradientUnits="objectBoundingBox">
      <stop offset="0" stop-color="#dc8cdb"/>
      <stop offset="1" stop-color="#f6bf9f"/>
    </linearGradient>
  </defs>
  <g id="Grupo_27" data-name="Grupo 27" transform="translate(-6727 -2140)">
    <rect id="Retângulo_31" data-name="Retângulo 31" width="166" height="173" rx="38" transform="translate(6727 2140)" fill="url(#linear-gradient)"/>
    <path id="css3-alt" d="M0,32l9.089,97.183L50,142l40.911-12.817L100,32ZM81.536,51.643l-1.25,11.614L50.26,75.362l-.078.025H79.219l-3.333,36-25.573,7.047-25.729-7.17L22.917,93.114H35.651l.833,9.4,13.7,3.266L64.427,102l.964-15.125-43.307-.123V86.73l-.052.025-.937-11.368L50.286,63.92l1.693-.663H19.974l-1.51-11.614Z" transform="translate(6760 2139.5)" fill="#fff"/>
  </g>
</svg>
