<svg xmlns="http://www.w3.org/2000/svg" width="42" height="42" viewBox="0 0 42 42">
  <path id="github-square" d="M37.5,32H4.5A4.5,4.5,0,0,0,0,36.5v33A4.5,4.5,0,0,0,4.5,74h33A4.5,4.5,0,0,0,42,69.5v-33A4.5,4.5,0,0,0,37.5,32ZM26,67.972c-.788.141-1.078-.347-1.078-.75,0-.506.019-3.094.019-5.184a3.653,3.653,0,0,0-1.059-2.878C27.347,58.775,31,58.3,31,52.306a4.813,4.813,0,0,0-1.6-3.656,5.863,5.863,0,0,0-.159-4.219c-1.3-.4-4.284,1.678-4.284,1.678a14.748,14.748,0,0,0-7.8,0s-2.981-2.081-4.284-1.678a5.818,5.818,0,0,0-.159,4.219,4.708,4.708,0,0,0-1.462,3.656c0,5.963,3.5,6.469,6.966,6.853a3.4,3.4,0,0,0-.994,2.091,3.289,3.289,0,0,1-4.528-1.3,3.266,3.266,0,0,0-2.391-1.6c-1.519-.019-.1.956-.1.956,1.013.469,1.725,2.269,1.725,2.269.909,2.784,5.259,1.847,5.259,1.847,0,1.3.019,3.422.019,3.806,0,.4-.281.891-1.078.75A15.554,15.554,0,0,1,5.606,53.131,14.877,14.877,0,0,1,20.794,37.991c8.606,0,15.581,6.534,15.581,15.141A15.411,15.411,0,0,1,26,67.972Zm-9.2-5.728c-.178.037-.347-.037-.366-.159-.019-.141.1-.262.281-.3.178-.019.347.056.366.178s-.094.244-.281.281Zm-.891-.084c0,.122-.141.225-.328.225-.206.019-.347-.084-.347-.225,0-.122.141-.225.328-.225C15.741,61.916,15.909,62.019,15.909,62.159Zm-1.284-.1c-.037.122-.225.178-.384.122-.178-.037-.3-.178-.263-.3s.225-.178.384-.141c.188.056.309.2.262.319Zm-1.153-.506c-.084.1-.262.084-.4-.056-.141-.122-.178-.3-.084-.384.084-.1.263-.084.4.056C13.509,61.287,13.556,61.475,13.472,61.55Zm-.853-.853c-.084.056-.244,0-.347-.141s-.1-.3,0-.366c.1-.084.262-.019.347.122A.275.275,0,0,1,12.619,60.7Zm-.609-.909c-.084.084-.225.037-.328-.056-.1-.122-.122-.262-.038-.328.084-.084.225-.037.328.056C12.075,59.581,12.094,59.722,12.009,59.787Zm-.628-.694a.177.177,0,0,1-.263.037c-.122-.056-.178-.159-.141-.244a.221.221,0,0,1,.263-.037C11.362,58.916,11.419,59.019,11.381,59.094Z" transform="translate(0 -32)" fill="#fff"/>
</svg>
