<svg xmlns="http://www.w3.org/2000/svg" width="42" height="42" viewBox="0 0 42 42">
  <path id="instagram-square" d="M21,48a5,5,0,1,0,5,5A5,5,0,0,0,21,48Zm11.692-3.844A5.062,5.062,0,0,0,29.841,41.3c-1.969-.777-6.656-.6-8.841-.6s-6.867-.181-8.842.6a5.062,5.062,0,0,0-2.851,2.851c-.776,1.969-.6,6.661-.6,8.843s-.173,6.869.607,8.844a5.063,5.063,0,0,0,2.851,2.851c1.969.777,6.656.6,8.842.6s6.866.181,8.841-.6A5.063,5.063,0,0,0,32.7,61.843c.783-1.969.6-6.661.6-8.843s.18-6.868-.6-8.843ZM21,60.688a7.678,7.678,0,1,1,5.439-2.249A7.688,7.688,0,0,1,21,60.688Zm8-13.9a1.784,1.784,0,1,1,1.272-.524A1.794,1.794,0,0,1,29,46.784ZM37.5,32H4.5A4.5,4.5,0,0,0,0,36.5v33A4.5,4.5,0,0,0,4.5,74h33A4.5,4.5,0,0,0,42,69.5v-33A4.5,4.5,0,0,0,37.5,32Zm-1.6,27.188a8.92,8.92,0,0,1-2.423,6.281,8.924,8.924,0,0,1-6.281,2.423c-2.476.14-9.9.14-12.375,0a8.937,8.937,0,0,1-6.281-2.423,8.893,8.893,0,0,1-2.423-6.281c-.14-2.477-.14-9.9,0-12.375a8.891,8.891,0,0,1,2.423-6.281,8.941,8.941,0,0,1,6.281-2.417c2.476-.14,9.9-.14,12.375,0a8.926,8.926,0,0,1,6.281,2.423,8.925,8.925,0,0,1,2.423,6.286C36.035,49.291,36.035,56.709,35.895,59.188Z" transform="translate(0 -32)" fill="#fff"/>
</svg>
