<svg xmlns="http://www.w3.org/2000/svg" xmlns:xlink="http://www.w3.org/1999/xlink" width="166" height="173" viewBox="0 0 166 173">
  <defs>
    <linearGradient id="linear-gradient" x1="0.5" x2="0.5" y2="1" gradientUnits="objectBoundingBox">
      <stop offset="0" stop-color="#f6bf9f"/>
      <stop offset="1" stop-color="#dc8cdb"/>
    </linearGradient>
  </defs>
  <g id="Grupo_31" data-name="Grupo 31" transform="translate(-7756 -2140)">
    <rect id="Retângulo_35" data-name="Retângulo 35" width="166" height="173" rx="38" transform="translate(7756 2140)" fill="url(#linear-gradient)"/>
    <path id="laravel" d="M102.617,23.291a1.184,1.184,0,0,0-.054-.137,1.76,1.76,0,0,0-.1-.251,1.2,1.2,0,0,0-.1-.143,1.876,1.876,0,0,0-.138-.189c-.044-.044-.1-.08-.148-.121a1.7,1.7,0,0,0-.173-.137L83.447,11.169a1.472,1.472,0,0,0-1.534,0L63.457,22.32h0a1.561,1.561,0,0,0-.169.139,1.485,1.485,0,0,0-.15.121,1.648,1.648,0,0,0-.138.187c-.033.048-.075.09-.1.143a2,2,0,0,0-.1.251c-.015.046-.04.088-.054.137a1.7,1.7,0,0,0-.054.418V44.879L47.312,54.168V12.756a1.641,1.641,0,0,0-.054-.42c-.012-.048-.038-.09-.054-.137a1.724,1.724,0,0,0-.1-.249c-.027-.052-.071-.095-.1-.145a1.877,1.877,0,0,0-.138-.189,1.827,1.827,0,0,0-.15-.121,1.893,1.893,0,0,0-.169-.137h0L28.087.214a1.472,1.472,0,0,0-1.534,0L8.1,11.358h0a1.261,1.261,0,0,0-.169.139,1.506,1.506,0,0,0-.151.121,1.633,1.633,0,0,0-.136.187c-.035.05-.077.093-.105.145a1.629,1.629,0,0,0-.1.249,1.333,1.333,0,0,0-.056.135,1.721,1.721,0,0,0-.054.422v66.3a1.625,1.625,0,0,0,.767,1.4L45,102.744a1.649,1.649,0,0,0,.255.109,1.3,1.3,0,0,0,.121.052,1.45,1.45,0,0,0,.786,0c.038-.01.071-.032.105-.044a1.606,1.606,0,0,0,.268-.117L83.447,80.455a1.625,1.625,0,0,0,.767-1.4V57.89L101.9,47.21a1.625,1.625,0,0,0,.767-1.408V23.712A1.817,1.817,0,0,0,102.617,23.291ZM27.318,3.473h0L42.69,12.754,27.316,22.041l-15.37-9.285ZM44.235,15.539V56.024l-8.92,5.387-6.458,3.9V24.834l8.92-5.387Zm0,83.008L10.4,78.124V15.547l6.458,3.9,8.918,5.389V68.105a1.46,1.46,0,0,0,.023.181,1.683,1.683,0,0,0,.031.237h0a1.223,1.223,0,0,0,.073.181,1.318,1.318,0,0,0,.081.2h0a1.711,1.711,0,0,0,.115.157,1.524,1.524,0,0,0,.127.169h0c.044.044.1.076.148.117a1.724,1.724,0,0,0,.165.133h0L44.214,79.974ZM45.769,77.2,30.422,68.083l16.12-9.735,17.686-10.68,15.361,9.277L68.316,63.693Zm35.372.919L47.308,98.557V79.994l25.059-15,8.774-5.259Zm0-23.956-6.458-3.887-8.92-5.387V26.5l6.458,3.9,8.92,5.391Zm1.534-21.171L67.3,23.7l15.374-9.283L98.045,23.7Zm1.534,21.171V35.793L93.147,30.4,99.6,26.5V44.879h0Z" transform="translate(7784.004 2175.021)" fill="#fff"/>
  </g>
</svg>
