<svg xmlns="http://www.w3.org/2000/svg" width="42" height="42" viewBox="0 0 42 42">
  <path id="linkedin" d="M39,32H2.991A3.013,3.013,0,0,0,0,35.028V70.972A3.013,3.013,0,0,0,2.991,74H39a3.021,3.021,0,0,0,3-3.028V35.028A3.021,3.021,0,0,0,39,32ZM12.694,68H6.469V47.956H12.7V68ZM9.581,45.219a3.609,3.609,0,1,1,3.609-3.609A3.611,3.611,0,0,1,9.581,45.219ZM36.028,68H29.8V58.25c0-2.325-.047-5.316-3.234-5.316-3.244,0-3.741,2.531-3.741,5.147V68H16.6V47.956h5.972v2.738h.084a6.557,6.557,0,0,1,5.9-3.234c6.3,0,7.472,4.153,7.472,9.553Z" transform="translate(0 -32)" fill="#fff"/>
</svg>
