<svg xmlns="http://www.w3.org/2000/svg" xmlns:xlink="http://www.w3.org/1999/xlink" width="166" height="173" viewBox="0 0 166 173">
  <defs>
    <linearGradient id="linear-gradient" x1="0.5" x2="0.5" y2="1" gradientUnits="objectBoundingBox">
      <stop offset="0" stop-color="#f6bf9f"/>
      <stop offset="1" stop-color="#dc8cdb"/>
    </linearGradient>
  </defs>
  <g id="Grupo_30" data-name="Grupo 30" transform="translate(-7488 -2140)">
    <rect id="Retângulo_34" data-name="Retângulo 34" width="166" height="173" rx="38" transform="translate(7488 2140)" fill="url(#linear-gradient)"/>
    <path id="php" d="M64.313,91.843c34.448,0,60.937,17.8,60.937,37.357s-26.509,37.357-60.937,37.357c-34.448,0-60.937-17.8-60.937-37.357S29.885,91.843,64.313,91.843m0-4.143C28.8,87.7,0,106.268,0,129.2s28.8,41.5,64.313,41.5,64.313-18.568,64.313-41.5S99.826,87.7,64.313,87.7Zm-20.46,38.171c-1.588,9.987-7.2,8.951-14.089,8.951l2.753-17.409c7.637,0,12.822-1.011,11.335,8.458ZM19.575,152.453h7.376L28.7,141.406c8.26,0,13.385.74,18.128-4.71,5.246-5.918,6.612-16.447,2.874-21.724-1.949-2.762-5.085-4.118-9.345-4.118H26.147ZM56.9,99.783h7.336l-1.749,11.047c6.331,0,12.2-.567,15.033,2.638,2.974,3.354,1.548,7.644-1.668,27.889H68.413c3.1-19.579,3.678-21.206,2.552-22.686-1.085-1.43-3.557-1.134-9.526-1.134l-3.778,23.82H50.325L56.9,99.783Zm44.6,26.089c-1.608,10.135-7.376,8.951-14.089,8.951l2.753-17.409C97.836,117.413,102.981,116.4,101.494,125.871ZM77.216,152.453h7.4l1.749-11.047c8.682,0,13.486.616,18.128-4.71,5.246-5.918,6.612-16.447,2.874-21.724-1.949-2.762-5.085-4.118-9.345-4.118H83.808Z" transform="translate(7506.687 2097.3)" fill="#fff"/>
  </g>
</svg>
