<svg xmlns="http://www.w3.org/2000/svg" xmlns:xlink="http://www.w3.org/1999/xlink" width="166" height="173" viewBox="0 0 166 173">
  <defs>
    <linearGradient id="linear-gradient" x1="0.5" x2="0.5" y2="1" gradientUnits="objectBoundingBox">
      <stop offset="0" stop-color="#f6bf9f"/>
      <stop offset="1" stop-color="#dc8cdb"/>
    </linearGradient>
  </defs>
  <g id="Grupo_29" data-name="Grupo 29" transform="translate(-7231 -2140)">
    <rect id="Retângulo_33" data-name="Retângulo 33" width="166" height="173" rx="38" transform="translate(7231 2140)" fill="url(#linear-gradient)"/>
    <path id="react" d="M94.769,64.736q-1.836-.609-3.671-1.149c.2-.834.385-1.668.567-2.5,2.787-13.433.952-24.23-5.235-27.791-5.96-3.4-15.681.135-25.516,8.655-.974.834-1.926,1.713-2.833,2.592-.612-.586-1.246-1.172-1.881-1.736C45.889,33.7,35.555,29.868,29.369,33.452c-5.937,3.426-7.7,13.591-5.212,26.3.249,1.262.521,2.5.838,3.764-1.45.406-2.878.856-4.215,1.33C8.679,69.019,0,75.6,0,82.407c0,7.032,9.246,14.087,21.823,18.369,1.02.338,2.04.676,3.082.969-.34,1.352-.635,2.682-.906,4.057-2.379,12.509-.521,22.426,5.416,25.83,6.119,3.516,16.407-.09,26.423-8.813.793-.7,1.586-1.42,2.379-2.186,1,.969,2.04,1.893,3.082,2.795,9.7,8.294,19.285,11.653,25.2,8.249,6.118-3.516,8.113-14.177,5.529-27.16q-.306-1.488-.68-3.043c.725-.2,1.428-.428,2.13-.654,13.075-4.3,22.548-11.27,22.548-18.414,0-6.829-8.928-13.456-21.256-17.671ZM64.108,45.6c8.43-7.3,16.293-10.165,19.874-8.114,3.83,2.186,5.3,11.022,2.9,22.629-.159.766-.317,1.51-.521,2.254a116.591,116.591,0,0,0-15.251-2.389,113.987,113.987,0,0,0-9.654-11.968C62.341,47.178,63.2,46.39,64.108,45.6ZM37.889,94.1c1.156,1.961,2.334,3.922,3.58,5.838a103.127,103.127,0,0,1-10.515-1.69,104.922,104.922,0,0,1,3.694-10.03c1.042,1.983,2.107,3.944,3.241,5.883ZM31.023,66.99c3.263-.721,6.73-1.307,10.333-1.758-1.2,1.871-2.379,3.787-3.49,5.725-1.11,1.916-2.2,3.877-3.218,5.86C33.221,73.459,32.02,70.168,31.023,66.99ZM37.232,82.52c1.5-3.11,3.127-6.153,4.849-9.151s3.58-5.905,5.529-8.768c3.4-.248,6.866-.383,10.4-.383s7.025.135,10.4.383q2.889,4.26,5.507,8.723t4.917,9.106q-2.277,4.666-4.895,9.2c-1.722,3-3.558,5.905-5.484,8.79-3.377.248-6.889.361-10.447.361s-7-.113-10.333-.316q-2.957-4.294-5.575-8.79c-1.745-3-3.354-6.04-4.872-9.151ZM78.158,94.06c1.156-1.983,2.243-3.989,3.309-6.018a104.282,104.282,0,0,1,3.83,9.985,100.029,100.029,0,0,1-10.651,1.8c1.224-1.893,2.379-3.832,3.512-5.77Zm3.263-17.242c-1.065-1.983-2.153-3.967-3.286-5.905q-1.666-2.874-3.467-5.68a104.793,104.793,0,0,1,10.4,1.8A99.409,99.409,0,0,1,81.421,76.817ZM58.058,51.461a99.093,99.093,0,0,1,6.708,8.069c-4.487-.2-9-.2-13.483,0C53.5,56.622,55.792,53.918,58.058,51.461ZM31.771,37.644c3.807-2.209,12.26.947,21.165,8.79.567.5,1.133,1.037,1.722,1.578a114.627,114.627,0,0,0-9.722,11.968,120.054,120.054,0,0,0-15.228,2.344c-.295-1.149-.544-2.322-.793-3.494-2.13-10.909-.725-19.136,2.855-21.187ZM26.219,97.057c-.952-.27-1.881-.563-2.81-.879-4.827-1.51-10.311-3.9-14.277-7.032a10.107,10.107,0,0,1-4.26-6.739c0-4.125,7.161-9.4,17.494-12.983,1.292-.451,2.606-.856,3.92-1.24A119.457,119.457,0,0,0,31.839,82.52,122.8,122.8,0,0,0,26.219,97.057Zm26.423,22.088A41.511,41.511,0,0,1,39.861,127.1a10.08,10.08,0,0,1-8,.293c-3.6-2.074-5.1-10.03-3.059-20.736.249-1.262.521-2.524.838-3.764A113.94,113.94,0,0,0,45.028,105.1a119.066,119.066,0,0,0,9.79,12.036c-.725.7-1.45,1.375-2.175,2.006Zm5.552-5.477a106.734,106.734,0,0,1-6.866-8.182c2.175.09,4.419.135,6.685.135,2.334,0,4.623-.045,6.889-.158A97.3,97.3,0,0,1,58.194,113.669Zm29.618,6.762a10,10,0,0,1-3.739,7.055c-3.6,2.074-11.285-.631-19.579-7.708-.952-.811-1.9-1.69-2.878-2.592A111.589,111.589,0,0,0,71.179,105.1a112.27,112.27,0,0,0,15.455-2.367c.227.924.431,1.848.612,2.75A40.871,40.871,0,0,1,87.812,120.43ZM91.936,96.2c-.635.2-1.269.406-1.926.586a114.138,114.138,0,0,0-5.779-14.38A113.554,113.554,0,0,0,89.783,68.23c1.178.338,2.311.7,3.4,1.059,10.56,3.606,17.97,8.971,17.97,13.073C111.153,86.78,103.244,92.482,91.936,96.2ZM58.012,92.82A10.323,10.323,0,1,0,47.634,82.5,10.349,10.349,0,0,0,58.012,92.82Z" transform="translate(7255.987 2143.997)" fill="#fff"/>
  </g>
</svg>
