<svg xmlns="http://www.w3.org/2000/svg" xmlns:xlink="http://www.w3.org/1999/xlink" width="166" height="173" viewBox="0 0 166 173">
  <defs>
    <linearGradient id="linear-gradient" x1="0.5" x2="0.5" y2="1" gradientUnits="objectBoundingBox">
      <stop offset="0" stop-color="#f6bf9f"/>
      <stop offset="1" stop-color="#dc8cdb"/>
    </linearGradient>
  </defs>
  <g id="Grupo_32" data-name="Grupo 32" transform="translate(-6971 -2140)">
    <rect id="Retângulo_32" data-name="Retângulo 32" width="166" height="173" rx="38" transform="translate(6971 2140)" fill="url(#linear-gradient)"/>
    <path id="sass" d="M56.128,98.143C56.073,98.279,56.017,98.387,56.128,98.143Zm46.324-19.691a20.894,20.894,0,0,0-10.785,3.055c-1.1-2.693-2.231-5.047-2.417-6.813a22.067,22.067,0,0,1-.2-5.726,56.529,56.529,0,0,1,1.413-6.156c-.019-.249-.26-1.494-2.659-1.516s-4.463.566-4.7,1.335a32.649,32.649,0,0,0-.986,4.323C81.685,69.6,77.317,79.063,74.844,84a19.949,19.949,0,0,1-1.655-4.979,22.067,22.067,0,0,1-.2-5.726A56.528,56.528,0,0,1,74.4,67.136c-.019-.249-.26-1.494-2.657-1.516s-4.463.566-4.7,1.335-.5,2.58-.986,4.323-6.3,17.5-7.825,21.592c-.781,2.082-1.45,3.757-1.934,4.889-.074.181-.13.294-.167.385.056-.113.093-.226.093-.181-.409.973-.651,1.516-.651,1.516V99.5c-.316.724-.669,1.381-.837,1.381a11.368,11.368,0,0,1,.056-4.5C55.66,90.9,57.724,82.39,57.705,82.1a2.128,2.128,0,0,0-1.357-2.422,1.94,1.94,0,0,0-2.454.5c-.149,0-.26.453-.26.453s1.878-9.6-3.605-9.6c-3.421,0-8.182,4.572-10.521,8.714-1.469.973-4.649,3.078-8,5.319-1.283.86-2.6,1.743-3.849,2.58-.093-.113-.167-.226-.26-.339C20.747,78.656,8.46,72.545,8.98,60.934,9.166,56.7,10.375,45.589,32.608,32.1c18.223-11.045,32.791-8.012,35.3-1.267,3.607,9.619-7.789,27.522-26.713,30.1-7.213.973-11-2.422-11.953-3.689-.986-1.335-1.134-1.4-1.506-1.154-.614.407-.223,1.584,0,2.286a12.052,12.052,0,0,0,6.841,6.541c3.477,1.381,11.934,2.15,22.159-2.671,11.488-5.387,20.43-20.392,17.808-32.954-2.67-12.765-20.06-16.952-36.5-9.845C28.244,23.68,17.649,30.334,10.027,39,.974,49.324-.475,58.309.12,62.066,2.238,75.4,17.333,84.088,23.374,90.516c-.3.2-.576.385-.837.566C19.509,92.915,8,100.248,5.12,107.988c-3.254,8.782.539,15.074,3.029,15.934,7.771,2.625,15.727-2.1,20-9.868s3.756-17.9,1.785-22.52c-.019-.068-.056-.113-.074-.181.781-.566,1.581-1.132,2.38-1.7,1.541-1.109,3.048-2.127,4.368-3.01a41.9,41.9,0,0,0-1.562,9.642c-.335,4.979,1.357,11.43,3.552,13.965a3.455,3.455,0,0,0,2.862,1.132c2.566,0,3.719-2.58,5-5.658,1.581-3.757,2.975-8.125,2.975-8.125s-1.748,11.814,3.031,11.814c1.746,0,3.494-2.739,4.277-4.142v.023s.037-.091.13-.272c.186-.339.279-.543.279-.543v-.068c.707-1.471,2.25-4.843,4.572-10.411,3.012-7.2,5.893-16.183,5.893-16.183a53.95,53.95,0,0,0,1.153,5.839,61.218,61.218,0,0,0,2.492,6.79c-.707,1.177-1.134,1.856-1.134,1.856a.077.077,0,0,0,.019.045c-.558.905-1.19,1.879-1.841,2.829-2.378,3.44-5.206,7.378-5.578,8.51-.446,1.335-.335,2.331.521,3.1a3.836,3.836,0,0,0,2.917.566,11.058,11.058,0,0,0,4.37-1.222,14.58,14.58,0,0,0,3.754-2.4A11.092,11.092,0,0,0,77.9,94.725a22.07,22.07,0,0,0-1.357-6.382c.2-.362.428-.747.632-1.132A129.354,129.354,0,0,0,83.7,73.491,53.952,53.952,0,0,0,84.85,79.33a44.751,44.751,0,0,0,2.118,5.817,25.041,25.041,0,0,0-6.339,9.981c-1.376,4.821-.3,6.994,1.729,7.492a5.308,5.308,0,0,0,3.18-.792,14.033,14.033,0,0,0,4.015-2.512c2.324-2.082,4.572-5,4.424-8.963a19.953,19.953,0,0,0-1-5.3,19,19,0,0,1,11.545-1.63c10.353,1.471,12.38,9.347,11.99,12.629a8.381,8.381,0,0,1-3.291,5.658c-.725.543-.948.747-.893,1.154.093.588.428.566,1.041.43.855-.181,5.428-2.671,5.632-8.759.3-7.7-5.781-16.16-16.549-16.092Zm-79.8,32.75c-3.42,4.549-8.217,6.269-10.279,4.821-2.213-1.566-1.339-8.261,2.88-13.109a57.392,57.392,0,0,1,8.068-7.333c.5-.362,1.227-.905,2.12-1.562.149-.113.223-.158.223-.158.167-.136.353-.249.539-.385A20.926,20.926,0,0,1,22.649,111.2ZM47.633,90.516c-1.19,3.553-3.7,12.607-5.223,12.131-1.3-.407-2.1-7.31-.26-14.1a33.678,33.678,0,0,1,4.072-9.076c1.876-2.558,3.94-3.372,4.424-2.354.651,1.335-2.269,11.181-3.012,13.4Zm20.64,12c-.5.317-.967.521-1.19.362-.167-.113.2-.543.2-.543s2.585-3.372,3.607-4.911c.6-.905,1.283-1.969,2.025-3.146,0,.113.019.226.019.362-.024,4.051-3.221,6.79-4.671,7.876ZM84.186,98.1c-.372-.317-.316-1.381.93-4.685a17.7,17.7,0,0,1,3.533-5.545A9.8,9.8,0,0,1,89,90.312c-.019,5.092-3.012,6.994-4.814,7.786Z" transform="translate(6994.495 2156.172)" fill="#fff"/>
  </g>
</svg>
